<mxfile host="app.diagrams.net" modified="2023-01-31T03:30:48.230Z" agent="5.0 (Macintosh; Intel Mac OS X 10_15_7) AppleWebKit/537.36 (KHTML, like Gecko) Chrome/109.0.0.0 Safari/537.36" etag="HIoeci49LexAkxNEEv76" version="20.8.13" type="github">
  <diagram id="C5RBs43oDa-KdzZeNtuy" name="Page-1">
    <mxGraphModel dx="794" dy="459" grid="1" gridSize="10" guides="1" tooltips="1" connect="1" arrows="1" fold="1" page="1" pageScale="1" pageWidth="827" pageHeight="1169" math="0" shadow="0">
      <root>
        <mxCell id="WIyWlLk6GJQsqaUBKTNV-0" />
        <mxCell id="WIyWlLk6GJQsqaUBKTNV-1" parent="WIyWlLk6GJQsqaUBKTNV-0" />
        <mxCell id="WIyWlLk6GJQsqaUBKTNV-2" value="" style="rounded=0;html=1;jettySize=auto;orthogonalLoop=1;fontSize=11;endArrow=block;endFill=0;endSize=8;strokeWidth=1;shadow=0;labelBackgroundColor=none;edgeStyle=orthogonalEdgeStyle;" parent="WIyWlLk6GJQsqaUBKTNV-1" source="WIyWlLk6GJQsqaUBKTNV-3" edge="1">
          <mxGeometry relative="1" as="geometry">
            <mxPoint x="220" y="120" as="targetPoint" />
            <Array as="points">
              <mxPoint x="220" y="120" />
              <mxPoint x="220" y="120" />
            </Array>
          </mxGeometry>
        </mxCell>
        <mxCell id="WIyWlLk6GJQsqaUBKTNV-3" value="START" style="rounded=1;whiteSpace=wrap;html=1;fontSize=12;glass=0;strokeWidth=1;shadow=0;" parent="WIyWlLk6GJQsqaUBKTNV-1" vertex="1">
          <mxGeometry x="170" y="50" width="90" height="30" as="geometry" />
        </mxCell>
        <mxCell id="WIyWlLk6GJQsqaUBKTNV-12" value="STOP" style="rounded=1;whiteSpace=wrap;html=1;fontSize=12;glass=0;strokeWidth=1;shadow=0;" parent="WIyWlLk6GJQsqaUBKTNV-1" vertex="1">
          <mxGeometry x="335" y="450" width="120" height="40" as="geometry" />
        </mxCell>
        <mxCell id="3vn0m1kqKmrmqpscWe-u-8" value="Set numbers = input x" style="shape=parallelogram;perimeter=parallelogramPerimeter;whiteSpace=wrap;html=1;fixedSize=1;" vertex="1" parent="WIyWlLk6GJQsqaUBKTNV-1">
          <mxGeometry x="140" y="120" width="160" height="60" as="geometry" />
        </mxCell>
        <mxCell id="3vn0m1kqKmrmqpscWe-u-10" value="" style="edgeStyle=orthogonalEdgeStyle;rounded=0;orthogonalLoop=1;jettySize=auto;html=1;exitX=0.333;exitY=1.092;exitDx=0;exitDy=0;exitPerimeter=0;" edge="1" parent="WIyWlLk6GJQsqaUBKTNV-1" source="3vn0m1kqKmrmqpscWe-u-15">
          <mxGeometry relative="1" as="geometry">
            <mxPoint x="200" y="350" as="sourcePoint" />
            <mxPoint x="200" y="310" as="targetPoint" />
            <Array as="points">
              <mxPoint x="200" y="270" />
              <mxPoint x="200" y="270" />
            </Array>
          </mxGeometry>
        </mxCell>
        <mxCell id="3vn0m1kqKmrmqpscWe-u-11" value="" style="edgeStyle=orthogonalEdgeStyle;rounded=0;orthogonalLoop=1;jettySize=auto;html=1;exitX=0.5;exitY=1;exitDx=0;exitDy=0;" edge="1" parent="WIyWlLk6GJQsqaUBKTNV-1" source="3vn0m1kqKmrmqpscWe-u-8">
          <mxGeometry relative="1" as="geometry">
            <mxPoint x="209.5" y="250" as="sourcePoint" />
            <mxPoint x="220" y="220" as="targetPoint" />
          </mxGeometry>
        </mxCell>
        <mxCell id="3vn0m1kqKmrmqpscWe-u-15" value="CALCULATE square of numbers and store as squNum" style="rounded=0;whiteSpace=wrap;html=1;" vertex="1" parent="WIyWlLk6GJQsqaUBKTNV-1">
          <mxGeometry x="160" y="220" width="120" height="60" as="geometry" />
        </mxCell>
        <mxCell id="3vn0m1kqKmrmqpscWe-u-16" value="" style="edgeStyle=orthogonalEdgeStyle;rounded=0;orthogonalLoop=1;jettySize=auto;html=1;" edge="1" parent="WIyWlLk6GJQsqaUBKTNV-1">
          <mxGeometry relative="1" as="geometry">
            <mxPoint x="275" y="350" as="sourcePoint" />
            <mxPoint x="375" y="360" as="targetPoint" />
            <Array as="points">
              <mxPoint x="305" y="350" />
              <mxPoint x="305" y="320" />
              <mxPoint x="335" y="320" />
              <mxPoint x="335" y="340" />
              <mxPoint x="375" y="340" />
            </Array>
          </mxGeometry>
        </mxCell>
        <mxCell id="3vn0m1kqKmrmqpscWe-u-17" value="CALCULATE the sum of square of numbers and store as sumsquNum" style="rounded=0;whiteSpace=wrap;html=1;" vertex="1" parent="WIyWlLk6GJQsqaUBKTNV-1">
          <mxGeometry x="155" y="310" width="120" height="60" as="geometry" />
        </mxCell>
        <mxCell id="3vn0m1kqKmrmqpscWe-u-18" value="PRINT &quot;sumsquNum" style="shape=parallelogram;perimeter=parallelogramPerimeter;whiteSpace=wrap;html=1;fixedSize=1;" vertex="1" parent="WIyWlLk6GJQsqaUBKTNV-1">
          <mxGeometry x="320" y="360" width="150" height="60" as="geometry" />
        </mxCell>
        <mxCell id="3vn0m1kqKmrmqpscWe-u-23" value="" style="edgeStyle=orthogonalEdgeStyle;rounded=0;orthogonalLoop=1;jettySize=auto;html=1;exitX=0.5;exitY=1;exitDx=0;exitDy=0;" edge="1" parent="WIyWlLk6GJQsqaUBKTNV-1">
          <mxGeometry relative="1" as="geometry">
            <mxPoint x="220" y="180" as="sourcePoint" />
            <mxPoint x="220" y="220" as="targetPoint" />
          </mxGeometry>
        </mxCell>
        <mxCell id="3vn0m1kqKmrmqpscWe-u-24" value="" style="edgeStyle=orthogonalEdgeStyle;rounded=0;orthogonalLoop=1;jettySize=auto;html=1;" edge="1" parent="WIyWlLk6GJQsqaUBKTNV-1">
          <mxGeometry relative="1" as="geometry">
            <mxPoint x="394.5" y="420" as="sourcePoint" />
            <mxPoint x="394.5" y="450" as="targetPoint" />
          </mxGeometry>
        </mxCell>
      </root>
    </mxGraphModel>
  </diagram>
</mxfile>
